PathFileType	4	(X/Y/Z)	E:\Qualisys_Data\Carbon_Farble_Plate\Data\Amateur_Runner\S2\T3\S2T3V22_c3d.trc
DataRate	CameraRate	NumFrames	NumMarkers	Units	OrigDataRate	OrigDataStartFrame	OrigNumFrames
200.000000	200.000000	5	39	mm	200.000000	79	316
Frame#	Time	LSHO			RSHO			LICST			RICST			LASIS			LHEEL			RASIS			LTROC			RTROC			SACR			LTH1			LSK4			LTH2			LTH3			RHM5			LSK2			LTH4			RTH1			LTOE			RTH2			RTH3			RTH4			LLEP			RLEP			LSK1			LSK3			RSK1			LHM5			RSK2			LFT1			RSK3			RSK4			LLME			RLME			RTOE			RHEEL			RFT1			RFT2			LFT2			
		X1	Y1	Z1	X2	Y2	Z2	X3	Y3	Z3	X4	Y4	Z4	X5	Y5	Z5	X6	Y6	Z6	X7	Y7	Z7	X8	Y8	Z8	X9	Y9	Z9	X10	Y10	Z10	X11	Y11	Z11	X12	Y12	Z12	X13	Y13	Z13	X14	Y14	Z14	X15	Y15	Z15	X16	Y16	Z16	X17	Y17	Z17	X18	Y18	Z18	X19	Y19	Z19	X20	Y20	Z20	X21	Y21	Z21	X22	Y22	Z22	X23	Y23	Z23	X24	Y24	Z24	X25	Y25	Z25	X26	Y26	Z26	X27	Y27	Z27	X28	Y28	Z28	X29	Y29	Z29	X30	Y30	Z30	X31	Y31	Z31	X32	Y32	Z32	X33	Y33	Z33	X34	Y34	Z34	X35	Y35	Z35	X36	Y36	Z36	X37	Y37	Z37	X38	Y38	Z38	X39	Y39	Z39	

80	0.395	-1864.450561523438	1530.586791992188	-431.8704223632812	-1769.738525390625	1510.031982421875	-153.167724609375	-1851.00732421875	1056.249267578125	-420.6604309082031	-1821.91552734375	1048.492431640625	-124.0107650756836	-1790.059814453125	1009.721374511719	-402.3346862792969	-1636.632934570312	134.1899566650391	-309.3584289550781	-1769.628784179688	996.8235473632812	-147.5184783935547	-1909.092529296875	933.4685668945312	-422.4999084472656	-1932.350708007812	970.0513916015624	-113.0656280517578	-1930.6015625	1094.970092773438	-261.4883422851562	-1708.883056640625	716.945556640625	-441.1027526855469	-1684.60107421875	337.6726989746094	-401.0121765136719	-1787.014892578125	684.0293579101562	-438.6775512695312	-1670.35595703125	626.6124877929688	-410.2891540527344	-2476.752685546875	325.0289001464844	-131.081787109375	-1704.799560546875	433.4645385742188	-415.9046325683594	-1749.677612304688	595.3277587890625	-406.9575805664062	-1914.888305664062	687.5081787109375	-102.4941635131836	-1421.220092773438	248.4811859130859	-364.0200805664062	-1983.23291015625	722.7239990234375	-102.4822006225586	-1956.795043945312	598.1232299804688	-110.9052047729492	-2027.601928710938	636.27734375	-117.3461303710938	-1691.18603515625	573.7532958984375	-404.4356689453125	-2023.401977539062	594.9673461914062	-107.9143600463867	-1629.03076171875	450.8469848632812	-409.3141174316406	-1607.5146484375	354.0973205566406	-398.0302734375	-2115.398193359375	512.6383056640625	-102.0069808959961	-1468.689453125	191.2088470458984	-411.8243103027344	-2145.908203125	586.8445434570312	-103.4592666625977	-1610.934814453125	117.7861480712891	-281.9184265136719	-2208.818359375	473.29248046875	-110.5213470458984	-2236.20556640625	547.385498046875	-117.8305892944336	-1594.331787109375	172.3633575439453	-370.8998413085938	-2395.64208984375	438.70751953125	-148.8698425292969	-2459.705322265625	252.4585418701172	-178.5541381835938	-2389.56298828125	495.3967590332031	-212.0879058837891	-2407.667724609375	481.7573547363281	-244.6876220703125	-2418.2431640625	502.6892395019531	-197.2702331542969	-1620.867065429688	103.8344802856445	-333.7802124023438
81	0.4	-1844.596069335938	1527.184326171875	-433.7611694335938	-1750.251342773438	1507.829223632812	-154.7003173828125	-1830.61962890625	1054.235107421875	-421.5747985839844	-1801.07861328125	1046.387817382812	-124.310661315918	-1769.74755859375	1007.454406738281	-402.9341125488281	-1617.77587890625	130.28662109375	-307.6134643554688	-1749.081420898438	994.7532958984376	-147.99072265625	-1888.524291992188	930.6620483398438	-423.4365539550781	-1911.436279296875	966.878662109375	-113.8230743408203	-1910.138427734375	1092.497192382812	-261.9263305664062	-1691.079711914062	712.727783203125	-441.3530578613281	-1665.598022460938	333.8766784667969	-400.9563293457031	-1769.394165039062	679.2202758789062	-439.7338562011719	-1652.035522460938	622.4684448242188	-409.4608154296875	-2456.20947265625	330.8056945800781	-132.5533599853516	-1686.068725585938	429.9415283203125	-416.4140319824219	-1731.111450195312	590.7630004882812	-407.0007019042969	-1890.428955078125	683.9223022460938	-102.6485443115234	-1402.90087890625	245.4628601074219	-363.0604553222656	-1959.096557617188	718.784912109375	-102.2107620239258	-1932.331665039062	594.2643432617188	-110.6842498779297	-2003.477416992188	632.0586547851562	-117.9662475585938	-1672.913940429688	569.9680786132812	-404.7622375488281	-1998.617553710938	590.5513305664062	-108.1995391845703	-1610.672485351562	447.2971801757812	-408.7418823242188	-1588.503540039062	350.3984069824219	-397.47802734375	-2090.210205078125	511.3832092285156	-101.7452697753906	-1450.899780273438	187.4401245117188	-410.8486022949219	-2120.16845703125	585.013671875	-103.5648193359375	-1592.996215820312	114.7072448730469	-280.6386413574219	-2186.37158203125	472.8528747558594	-111.1999359130859	-2211.69384765625	548.05712890625	-118.3351974487305	-1576.060180664062	168.5157928466797	-369.0282897949219	-2372.970458984375	444.2815551757812	-147.4503326416016	-2441.85546875	257.371826171875	-179.3099365234375	-2364.953125	499.0348205566406	-213.2785491943359	-2384.4833984375	486.6533813476562	-246.7202301025391	-2393.68798828125	507.4883728027344	-198.3725128173828	-1602.963623046875	99.761962890625	-332.0369567871094
82	0.405	-1824.37353515625	1523.54296875	-435.5110778808594	-1730.605712890625	1505.305297851562	-155.7796936035156	-1810.115600585938	1051.153564453125	-421.4915161132812	-1781.313842773438	1043.265014648438	-124.6781845092773	-1749.204833984375	1004.4521484375	-403.0463562011719	-1600.775756835938	126.2260284423828	-306.3136291503906	-1728.298828125	992.2032470703124	-148.0002899169922	-1867.043090820312	927.75146484375	-424.6031188964844	-1891.037719726562	963.3679809570312	-115.1665115356445	-1890.039184570312	1089.3525390625	-262.5342712402344	-1673.0029296875	709.177734375	-441.982177734375	-1647.255493164062	330.1515808105469	-400.810791015625	-1750.371215820312	674.9537353515625	-440.1431579589844	-1633.515869140625	619.5989379882812	-409.5751647949219	-2436.15283203125	336.8763732910156	-133.8759765625	-1667.15625	426.3346862792969	-415.9786376953125	-1712.246704101562	586.637451171875	-406.7584838867188	-1865.402221679688	680.6444091796875	-102.1797256469727	-1386.035522460938	241.7683258056641	-362.6138610839844	-1935.633544921875	714.2301025390625	-102.0607070922852	-1906.98583984375	589.9149780273438	-110.6494598388672	-1978.762451171875	626.8544311523438	-117.4315795898438	-1652.586547851562	566.1265869140625	-404.5062255859375	-1972.977783203125	585.865478515625	-107.4015731811523	-1591.751342773438	443.5050964355469	-408.4159240722656	-1570.5888671875	346.5676879882812	-396.5906066894531	-2068.862548828125	507.3737487792969	-102.6052627563477	-1432.802734375	182.8496704101562	-409.6942138671875	-2095.023681640625	583.2635498046875	-104.2657699584961	-1575.910034179688	110.7965316772461	-279.3635559082031	-2163.39697265625	472.4547424316406	-111.9224243164062	-2186.919921875	547.877685546875	-119.0148696899414	-1558.665771484375	164.6959533691406	-368.2491760253906	-2350.518310546875	448.0900268554688	-149.0971374511719	-2421.95458984375	263.1055603027344	-181.216796875	-2340.178466796875	499.7283935546875	-211.3279724121094	-2359.954345703125	490.683349609375	-247.0536804199219	-2367.7197265625	511.4588928222656	-198.1975860595703	-1585.478149414062	96.15761566162108	-330.4812927246094
83	0.41	-1804.386474609375	1519.807373046875	-437.5474243164062	-1712.153930664062	1502.376342773438	-157.607666015625	-1790.084106445312	1048.939331054688	-422.64697265625	-1760.191650390625	1040.715942382812	-124.9512176513672	-1728.852661132812	1002.021179199219	-403.6790161132812	-1584.375610351562	122.367561340332	-305.5066223144531	-1708.629272460938	989.7537841796876	-148.8735504150391	-1846.436645507812	924.9580688476562	-425.759521484375	-1870.359741210938	959.722412109375	-116.0073547363281	-1869.890991210938	1086.589599609375	-263.2379455566406	-1653.488159179688	705.862548828125	-441.4422912597656	-1629.950073242188	326.6380615234375	-400.4139099121094	-1731.429809570312	671.627197265625	-440.1435241699219	-1614.688354492188	616.7075805664062	-408.7846984863281	-2414.67919921875	342.1142272949219	-134.9553680419922	-1648.958862304688	422.4374084472656	-415.8915710449219	-1692.563354492188	584.2640991210938	-405.4085083007812	-1841.163818359375	677.1852416992188	-102.0806884765625	-1369.5087890625	237.1381378173828	-361.4695434570312	-1911.511474609375	710.2481689453125	-102.346549987793	-1881.698486328125	585.7135620117188	-109.8247451782227	-1954.132934570312	622.2233276367188	-117.2258071899414	-1632.977416992188	562.9518432617188	-404.1470642089844	-1947.57470703125	581.6594848632812	-107.0780639648438	-1573.448120117188	439.0397033691406	-407.8420715332031	-1552.514770507812	342.0383605957031	-395.3460998535156	-2043.928588867188	504.4534912109375	-102.7013473510742	-1415.917724609375	177.7112274169922	-408.3465881347656	-2068.14306640625	580.4564208984375	-103.9955291748047	-1559.537841796875	107.0629119873047	-278.0354614257812	-2139.178955078125	471.9347229003906	-112.027946472168	-2160.96923828125	547.259521484375	-119.1235046386719	-1541.993408203125	160.4529266357422	-367.161376953125	-2326.598876953125	451.85400390625	-150.2030944824219	-2403.177490234375	268.2239074707031	-183.1762084960938	-2316.77880859375	504.8600158691406	-212.7369995117188	-2335.323974609375	494.3579711914062	-248.5645599365234	-2344.745849609375	515.4571533203125	-201.0519561767578	-1567.891357421875	90.96324157714844	-328.942626953125
84	0.415	-1784.205932617188	1515.322021484375	-439.4017639160156	-1691.65478515625	1499.146606445312	-158.4219055175781	-1769.31591796875	1045.15576171875	-422.7065734863281	-1740.796020507812	1037.313110351562	-125.2067489624023	-1708.875366210938	999.1956176757812	-404.3619384765625	-1569.393798828125	117.4382171630859	-304.2603454589844	-1686.6953125	986.7921142578124	-148.3347320556641	-1825.963500976562	921.7191772460938	-427.3575439453125	-1848.920654296875	955.4288940429688	-116.4756851196289	-1849.644409179688	1083.101806640625	-263.8644409179688	-1633.22216796875	702.7095947265625	-440.7860107421875	-1613.058349609375	322.6599731445312	-399.3696594238281	-1711.374389648438	668.7879028320312	-438.7500610351562	-1594.734375	613.3723754882812	-407.9461364746094	-2393.018798828125	347.0029602050781	-136.8441009521484	-1631.406982421875	418.4793701171875	-415.45458984375	-1672.869384765625	580.926513671875	-404.4897766113281	-1817.732788085938	672.75732421875	-102.8511047363281	-1353.910888671875	232.1810607910156	-360.8855285644531	-1887.544067382812	705.25634765625	-102.1319427490234	-1856.734130859375	581.2870483398438	-109.1334762573242	-1929.01025390625	616.3702392578125	-116.9556198120117	-1616.053955078125	559.261962890625	-404.1095275878906	-1922.360961914062	576.3489379882812	-106.5927276611328	-1555.333862304688	434.6145324707031	-406.8394775390625	-1536.181884765625	337.3916625976562	-394.5399475097656	-2019.063354492188	501.1402282714844	-101.3811874389648	-1399.713256835938	172.8013000488281	-406.8934631347656	-2042.69140625	577.9525756835938	-104.4041900634766	-1544.192993164062	102.7578277587891	-276.58251953125	-2116.096923828125	470.119873046875	-112.3241577148438	-2136.068115234375	547.3427734375	-120.0836791992188	-1527.068359375	155.3225555419922	-366.6934204101562	-2304.119384765625	455.3226318359375	-151.6251983642578	-2382.7236328125	273.0966491699219	-184.7819061279297	-2293.122802734375	510.4488220214844	-215.5093383789062	-2310.869384765625	497.7192993164062	-249.6125640869141	-2319.176025390625	519.5379028320312	-201.2902374267578	-1553.051513671875	86.9198226928711	-327.651123046875
